<svg id="Слой_1" data-name="Слой 1" xmlns="http://www.w3.org/2000/svg" viewBox="0 0 501.45 841.9"><defs><style>.cls-1{fill:#010202;}</style></defs><path class="cls-1" d="M321.74,610.15,463.51,383h0c23.58-37.94,37.94-85.11,37.94-132.54C501.45,113.57,387.88,0,250.72,0S0,113.57,0,250.72c0,47.18,14.1,90,37.94,132.54h0L175.1,610.15C71,624.25,0,666.8,0,723.72,0,789.86,108.7,841.9,250.72,841.9s250.73-52,250.73-118.18C501.45,666.8,430.44,624.25,321.74,610.15ZM61.53,368.91C37.94,331,28.46,293.28,28.46,250.72a222.27,222.27,0,0,1,444.53,0c0,42.56-14.1,85.12-33.07,118.19h0L288.67,610.15c0,4.61-4.62,4.61-4.62,9.48l-37.94,61.53L61.53,368.91ZM250.72,808.83c-132.54,0-222.26-47.17-222.26-90,0-38,71-75.63,160.74-85.12l47.17,75.63C241,714,241,714,250.47,714h0c4.61,0,9.48-4.61,14.1-4.61l47.17-75.63C406.34,643.22,482,680.9,482,718.85,473,761.4,383,808.83,250.72,808.83Z" transform="translate(0 0)"/><path class="cls-1" d="M340.45,245.85c0-52-42.55-90-90-90s-89.73,42.81-89.73,90c0,52,42.56,90,90,90S340.45,297.9,340.45,245.85Zm-151.25,0c0-33.07,28.45-61.52,61.52-61.52s61.53,28.45,61.53,61.52-28.45,61.53-61.53,61.53C217.65,312.25,189.2,283.8,189.2,245.85Z" transform="translate(0 0)"/></svg>